# xmcd
#
# Track frame offsets:
#	150
#	15625
#	31480
#	47192
#	60310
#	78617
#	92310
#	105105
#	120372
#	136407
#	147842
#	160480
#	173837
#	188587
#	206112
#	219982
#	238820
#	250845
#	266262
#	284750
#
# Disc length: 4021 seconds
#
# Revision: 1
# Processed by: cddbd v1.4PL0 Copyright (c) Steve Scherf et al.
# Submitted via: EasyCDDAExtractor 5.0.7
#
DISCID=120fb314
DTITLE=Tanya Tucker - Country Classics 11
DYEAR=1900
DGENRE=
TTITLE0=Delta Dawn
TTITLE1=Down To My Last Teardrop
TTITLE2=Soon
TTITLE3=Here's Some Love
TTITLE4=I'll Come Back As Another Woman
TTITLE5=Don't Believe My Heart Can Stand Another You
TTITLE6=Would You Lay With Me On A Field Of Stone
TTITLE7=Call On Me
TTITLE8=My Arms Stay Open All Night
TTITLE9=Pecos Promenade
TTITLE10=Daddy And Home
TTITLE11=It Won;t Be Me
TTITLE12=Don't Go Out
TTITLE13=Some Kind Of Trouble
TTITLE14=If Your Heart Ain;t Busy Tonight
TTITLE15=Two Sparros In A Hurricane
TTITLE16=It;s A Little Too Late
TTITLE17=Hangin' In
TTITLE18=Little Things
TTITLE19=Tell Me About It
EXTD=
EXTT0=
EXTT1=
EXTT2=
EXTT3=
EXTT4=
EXTT5=
EXTT6=
EXTT7=
EXTT8=
EXTT9=
EXTT10=
EXTT11=
EXTT12=
EXTT13=
EXTT14=
EXTT15=
EXTT16=
EXTT17=
EXTT18=
EXTT19=
PLAYORDER=
